<svg id="icons" enable-background="new 0 0 64 64" height="512" viewBox="0 0 64 64" width="512" xmlns="http://www.w3.org/2000/svg"><path d="m61.516 5.947c0-.13-.026-.26-.077-.382-.102-.245-.296-.439-.541-.541-.122-.051-.252-.077-.382-.077h-13.995c-.005 0-.008.003-.013.003s-.008-.003-.013-.003h-12.987-.005-10.02v-3.963c0-.42-.26-.776-.627-.925-.065-.027-.137-.029-.207-.042-.056-.01-.107-.033-.166-.033-.001 0-.002.001-.003.001s-.002-.001-.003-.001h-12.993c-.13 0-.26.026-.382.077-.123.051-.234.125-.326.217l-5.998 5.998c-.092.092-.166.203-.216.327-.051.122-.078.251-.078.381v12.994c0 .553.447 1 1 1h5.03v9.61l-5.598 5.584c-.255.181-.433.465-.433.802 0 .008.004.014.004.021s-.004.015-.004.022v.001 12.992c0 .002.001.003.001.005s-.001.003-.001.005v12.994c0 .553.447 1 1 1h12.988.005 12.988c.005 0 .008-.003.013-.003s.008.003.013.003h12.993c.13 0 .26-.026.382-.077.123-.051.234-.124.326-.217l5.998-5.998c.004-.004.006-.01.011-.015.002-.002.004-.002.006-.004l5.999-5.999c.003-.003.005-.008.008-.011s.006-.003.009-.006l5.999-5.999c.093-.092.166-.203.217-.326.051-.122.077-.252.077-.382v-11.99c0-.002-.001-.003-.001-.005s.001-.003.001-.005v-12.994c0-.008-.004-.015-.005-.022.001-.008.005-.015.005-.022v-13.995zm-51.588 26.057h5.545v3.971h-9.526zm-.03-30.02h10.165l-4 4h-10.165zm7.58 5.414 4.006-4.006v2.501c-.001.019-.011.035-.011.054s.009.034.01.053v7.564l-3.686 3.685c-.021.02-.04.038-.06.06l-.261.261v-10.172zm5.711 7.289c.093-.092.166-.203.217-.326.051-.122.077-.252.077-.382v-1.014h2.591l-4.016 4.016h-1.163zm11.734-7.74h10.16l-4.018 4.018h-.56c-.005 0-.008.003-.013.003s-.008-.003-.013-.003h-9.575zm23.179 0-4.018 4.018h-10.19l4.018-4.018zm1.414 24.617-4.016 4.016v-9.576c0-.008-.004-.015-.005-.022.001-.008.005-.015.005-.022v-.588l4.016-4.016zm-42.043 4.411v-10.995h10.993v10.994h-10.993zm11.429-23.01h10.165l-4.016 4.016h-10.164zm14.582 11.43 4-4v10.166l-4 4zm6-6 4.016-4.016v10.164l-4.016 4.016zm-1.414-1.415h-10.19l4.016-4.016h10.19zm-12.19 2h10.19l-4 4h-10.19zm-5.389 6h10.993v10.994h-10.993zm12.993 12.409 4-4v10.209l-4 4zm6-6.002 4.016-4.016v10.211l-4.016 4.016zm10.032-12.86-4.016 4.016v-10.166l4.016-4.016zm-36.629.453h10.165l-4 4h-10.165zm-18.403 18.995h10.988v11.037h-10.988zm12.994 0h10.988v11.037h-10.988zm13.013 0h10.993v11.037h-10.993zm12.993 12.451 4-4v10.176l-4 4zm6-6 4.016-4.016v10.174l-4.016 4.016zm6.016-6.018 4.016-4.016v10.176l-4.016 4.016zm-23.405-31.461-4.018 4.018h-4.594v-4.018zm-27.611 1.037h10.993v10.994h-10.993zm11.987 12.995c.003 0 .006.002.01.002.256 0 .512-.098.707-.293l1.707-1.707h1.164l-4.292 4.292c-.093.092-.166.203-.217.326-.051.122-.077.252-.077.382v6.023h-4.958v-9.025zm-11.987 30.033h10.988v11.004h-10.988zm12.994 11.004v-11.004h10.988v11.004zm13.013-11.004h10.993v11.004h-10.993z"/></svg>