<svg height="512" viewBox="0 0 46 58" width="512" xmlns="http://www.w3.org/2000/svg"><g id="Page-1" fill="none" fill-rule="evenodd"><g id="023---Freezing-DNA" fill-rule="nonzero" transform="translate(-1)"><path id="Shape" d="m47 9v44c0 2.7614237-2.2385763 5-5 5h-32c-2.76142375 0-5-2.2385763-5-5v-42.445c.00004144-1.01970879-.25980287-2.02260457-.755-2.914l-2.99-4.67c-.34371676-.618926-.33461485-1.37344705.02393213-1.98390153.35854697-.61045447 1.01310665-.98586957 1.72106787-.98709847h42c1.1045695 0 2 .8954305 2 2z" fill="#2980ba"/><path id="Shape" d="m46.03.29c-6.09 1.93-38.86 14.15-40.92 53.74-.07222812-.338599-.10909257-.6837842-.11-1.03v-42.45c-.00179934-1.01757369-.25972424-2.0183223-.75-2.91l-3-4.67c-.34364707-.61963738-.33379245-1.3748484.02590593-1.98530795.35969839-.61045955 1.01554367-.98503635 1.72409407-.98469205h42c.3640259-.00400571.7215393.0966534 1.03.29z" fill="#3b97d3"/><path id="Shape" d="m14 55h-4c-1.1045695 0-2-.8954305-2-2v-4c0-.5522847.44771525-1 1-1s1 .4477153 1 1v4h4c.5522847 0 1 .4477153 1 1s-.4477153 1-1 1z" fill="#fff"/><path id="Shape" d="m42.186 33.685-7.339 1.268-4.125-2.381c.3706301-1.0152312.3706301-2.1287688 0-3.144l4.125-2.381 7.339 1.268c.3564965.0715043.7237128-.0561259.9590164-.3333169s.3016112-.6602584.1731679-1.0004127-.4313951-.5837882-.7911843-.6362704l-4.974-.86 4.535-2.619c.3119508-.1773616.5049532-.5082732.5057421-.8671183s-.1907567-.6906021-.5019247-.8693336c-.3111679-.1787314-.694247-.1770325-1.0038174.0044519l-4.536 2.619 1.748-4.738c.1290968-.3366719.0669494-.716772-.1626518-.9947958s-.5910967-.4109124-.946104-.3477953-.6485446.3124647-.7682442.6525911l-2.571 6.99-4.129 2.385c-.7101688-.8144786-1.6658567-1.3760286-2.723-1.6v-4.738l4.768-5.722c.22865-.2745586.293456-.6502445.1700063-.9855405-.1234498-.335296-.4164003-.5792626-.7685-.64-.3520998-.0607374-.7098563.0709819-.9385063.3455405l-3.231 3.878v-5.238c0-.5522847-.4477153-1-1-1s-1 .4477153-1 1v5.238l-3.232-3.878c-.3574883-.4086317-.9757262-.4573621-1.39282-.109784-.4170937.3475782-.4806478.9644685-.14318 1.389784l4.768 5.722v4.738c-1.0572495.2236974-2.0130189.7852952-2.723 1.6l-4.124-2.381-2.571-6.99c-.1196996-.3401264-.4132369-.589474-.7682442-.6525911s-.7165028.0697715-.946104.3477953-.2917486.6581239-.1626518.9947958l1.743 4.738-4.536-2.619c-.3095704-.1814844-.6926495-.1831833-1.00381742-.0044519-.31116795.1787315-.50271357.5104885-.50192468.8693336.00078888.3588451.19379132.6897567.5057421.8671183l4.535 2.619-4.974.86c-.35978917.0524822-.66274101.2961161-.79118429.6362704s-.06213568.7232217.17316788 1.0004127c.23530357.277191.60251989.4048212.95901641.3333169l7.339-1.268 4.125 2.382c-.37066 1.0145384-.37066 2.1274616 0 3.142l-4.125 2.382-7.339-1.268c-.35649652-.0715043-.72371284.0561259-.95901641.3333169-.23530356.277191-.30161116.6602584-.17316788 1.0004127s.43139512.5837882.79118429.6362704l4.974.86-4.536 2.619c-.31195078.1773616-.50495322.5082732-.5057421.8671183-.00078889.3588451.19075673.6906021.50192468.8693336.31116792.1787314.69424702.1770325 1.00381742-.0044519l4.537-2.619-1.748 4.734c-.1290968.3366719-.0669494.716772.1626518.9947958s.5910967.4109124.946104.3477953.6485446-.3124647.7682442-.6525911l2.571-6.99 4.129-2.385c.7099811.8147048 1.6657505 1.3763026 2.723 1.6v4.739l-4.768 5.721c-.3374678.4253155-.2739137 1.0422058.14318 1.389784.4170938.3475781 1.0353317.2988477 1.39282-.109784l3.232-3.878v5.238c0 .5522847.4477153 1 1 1s1-.4477153 1-1v-5.238l3.231 3.878c.3534622.4244308.9840692.4819622 1.4085.1285.4244308-.3534623.4819622-.9840692.1285-1.4085l-4.768-5.722v-4.738c1.0563662-.2223519 2.0119569-.7817392 2.723-1.594l4.124 2.38 2.571 6.99c.1196996.3401264.4132369.589474.7682442.6525911s.7165028-.0697715.946104-.3477953.2917486-.6581239.1626518-.9947958l-1.743-4.738 4.536 2.619c.3095704.1814844.6926495.1831833 1.0038174.0044519.311168-.1787315.5027136-.5104885.5019247-.8693336s-.1937913-.6897567-.5057421-.8671183l-4.535-2.619 4.974-.86c.3597892-.0524822.662741-.2961161.7911843-.6362704s.0621357-.7232217-.1731679-1.0004127-.6025199-.4048212-.9590164-.3333169zm-16.186.315c-1.6568542 0-3-1.3431458-3-3s1.3431458-3 3-3 3 1.3431458 3 3-1.3431458 3-3 3z" fill="#9fc9d3"/><g fill="#fff"><path id="Shape" d="m11 6h-3c-.55228475 0-1-.44771525-1-1s.44771525-1 1-1h3c.5522847 0 1 .44771525 1 1s-.4477153 1-1 1z"/><path id="Shape" d="m42 6h-27c-.5522847 0-1-.44771525-1-1s.4477153-1 1-1h27c.5522847 0 1 .44771525 1 1s-.4477153 1-1 1z"/></g></g></g></svg>